# xmcd
#
# Track frame offsets:
# 150
# 31735
# 60691
# 88442
# 105845
# 127270
# 146193
# 166272
# 184088
# 205977
# 229359
# 251791
#
# Disc length: 3627 seconds
#
#
# Revision: 0
# Processed by: cddbd v1.5.1PL0 Copyright (c) Steve Scherf et al.
# Submitted via: FreeRIP 2.70 
#
DISCID=b10e290c
DTITLE=Ha
DYEAR=1900
DGENRE=R&B
TTITLE0=3-Way Phone Call (ft. K.Price,K.Burrell,M.Mahon
TTITLE1=U Saved Me
TTITLE2=Prayer Change
TTITLE3=How Did You Manage
TTITLE4=I Surrender
TTITLE5=When I Think About you
TTITLE6=The Diary Of Me
TTITLE7=Spirt
TTITLE8=Leap Of Faith
TTITLE9=Peace
TTITLE10=If I Could turn Back The Hands Of Time
TTITLE11=Sadie
EXTD=
EXTT0=
EXTT1=
EXTT2=
EXTT3=
EXTT4=
EXTT5=
EXTT6=
EXTT7=
EXTT8=
EXTT9=
EXTT10=
EXTT11=
PLAYORDER=
